<?xml version="1.0" standalone="no"?>
<!DOCTYPE svg PUBLIC "-//W3C//DTD SVG 20010904//EN"
 "http://www.w3.org/TR/2001/REC-SVG-20010904/DTD/svg10.dtd">
<svg version="1.0" xmlns="http://www.w3.org/2000/svg"
 width="768.000000pt" height="768.000000pt" viewBox="0 0 768.000000 768.000000"
 preserveAspectRatio="xMidYMid meet">
<metadata>
Created by potrace 1.11, written by Peter Selinger 2001-2013
</metadata>
<g transform="translate(0.000000,768.000000) scale(0.100000,-0.100000)"
fill="#000000" stroke="none">
<path d="M2998 5856 c-76 -19 -97 -30 -180 -91 -125 -94 -217 -183 -362 -350
-153 -175 -221 -260 -327 -405 -118 -161 -118 -160 -146 -273 l-25 -102 23
-100 c19 -79 32 -112 63 -156 61 -85 134 -132 245 -158 83 -19 123 -21 379
-21 l287 -1 -30 -26 c-16 -14 -122 -114 -235 -222 -661 -635 -1202 -1151
-1395 -1331 -123 -115 -156 -166 -184 -284 l-24 -100 24 -100 c19 -81 32 -112
64 -157 60 -83 132 -129 240 -156 l90 -22 1537 -1 c1516 0 1538 0 1625 21 48
11 96 22 105 25 32 10 213 146 281 212 157 153 371 418 543 672 61 90 70 110
94 207 l26 108 -24 100 c-43 178 -136 273 -307 315 -82 20 -116 22 -372 22
l-282 0 112 107 c62 58 132 126 157 151 25 25 138 133 250 240 113 107 261
249 330 315 176 169 733 700 804 765 32 30 82 87 111 125 46 61 55 82 74 167
l23 98 -23 97 c-40 175 -136 271 -309 311 l-95 22 -1540 -1 -1540 -1 -87 -22z
m3044 -519 c-65 -62 -274 -264 -467 -447 -192 -184 -444 -425 -560 -535 -115
-111 -466 -446 -780 -745 -313 -299 -571 -548 -573 -552 -2 -4 361 -8 807 -8
446 0 811 -2 811 -5 0 -10 -66 -113 -128 -200 -212 -295 -479 -580 -569 -604
-38 -11 -3053 -10 -3053 1 0 3 14 18 32 33 31 26 974 925 1223 1165 180 174
500 479 895 855 184 175 337 322 338 327 2 4 -362 8 -808 8 -739 0 -812 1
-806 16 13 34 115 172 219 298 235 281 333 384 456 478 l36 27 1522 1 1521 0
-116 -113z"/>
</g>
</svg>
